<?xml version="1.0" encoding="utf-8"?>
<!-- Generator: Adobe Illustrator 24.3.0, SVG Export Plug-In . SVG Version: 6.00 Build 0)  -->
<svg version="1.1" id="Layer_1" xmlns="http://www.w3.org/2000/svg" xmlns:xlink="http://www.w3.org/1999/xlink" x="0px" y="0px"
	 viewBox="0 0 219.5 130" style="enable-background:new 0 0 219.5 130;" xml:space="preserve">
<style type="text/css">
	.st0{fill:#64C2D2;}
	.st1{fill:#32A5B9;}
	.st2{opacity:0.43;}
	.st3{fill:#4F89A6;}
	.st4{opacity:0.43;fill:#64C2D2;enable-background:new    ;}
	.st5{fill:#65C3D3;}
	.st6{fill:#FACF5D;}
	.st7{fill:#D63D77;}
</style>
<g id="Layer_2_1_">
	<g id="Layer_1-2">
		<path id="path4219" class="st0" d="M29.1,99.1l-7.8,2.8l22.1-36.5l7.1,9L37.4,96.8L29.1,99.1z"/>
		<path id="path4221" class="st1" d="M8.7,128.4l9.2-0.2L36,96.7l-15,4.8L8.7,128.4z"/>
		<g class="st2">
			<path id="path4223" class="st3" d="M18.6,128.9l57.1-96.2l52.3,96.2H18.6z"/>
		</g>
		<path id="path4770" class="st4" d="M35.9,108.9l-7.8,2.8l22.1-36.5l9.9,12.6l-15.9,18.8L35.9,108.9z"/>
		<path id="path4225" class="st5" d="M18.2,128.6l19.4-32.1l23.2-7.9L91.1,129L18.2,128.6z"/>
		<path id="path4227" class="st6" d="M72.3,103.7L89.6,79l38.7,49.6l-37.4,0.3L72.3,103.7z"/>
		<path d="M128.9,129.8H9.2V10h119.8V129.8z M11.1,127.8H127V11.9H11.1V127.8z"/>
		<path id="path4231" class="st7" d="M60.8,88.8L72.4,104l17.1-24.6L60.8,88.8z"/>
		<polygon points="18.7,129.7 17.3,128.8 49.5,75 43.5,67.2 22.2,101.6 10.9,127.4 9.4,126.7 20.8,100.8 43.4,64.3 50.4,73.5 
			75.9,30.8 128.7,128.4 127.3,129.2 75.8,34.1 51.4,74.9 91.8,128.3 90.5,129.3 50.5,76.4 		"/>
		<polygon points="127.3,128.9 89.6,79.8 21.4,102.7 20.9,101.1 90.1,77.9 128.6,127.9 		"/>
		<rect x="65.9" y="90.7" transform="matrix(0.5713 -0.8208 0.8208 0.5713 -40.4699 105.6418)" width="29.9" height="1.6"/>
		<path d="M136.2,87c-0.1-0.1-0.1-0.3-0.1-0.4c0-0.3,0.3-0.6,0.6-0.6c0.4,0,0.6,0.2,0.7,0.6l1.8,5.8h0.1l1.8-5.8
			c0.1-0.5,0.4-0.6,0.7-0.6c0.3,0,0.6,0.3,0.6,0.6c0,0,0,0,0,0c0,0.2,0,0.3-0.1,0.4l-2,5.5c-0.4,1-0.6,1.2-1.1,1.2s-0.7-0.2-1.1-1.2
			L136.2,87z M144.5,83.3c0.4,0,0.8,0.3,0.8,0.7c0,0,0,0,0,0.1c0,0.4-0.3,0.8-0.7,0.9c-0.4,0-0.8-0.3-0.9-0.7c0-0.1,0-0.1,0-0.2
			C143.7,83.7,144,83.3,144.5,83.3C144.5,83.3,144.5,83.3,144.5,83.3L144.5,83.3z M144.5,93.8c-0.3,0-0.6-0.3-0.6-0.6
			c0,0,0-0.1,0-0.1v-6.5c0-0.3,0.2-0.7,0.5-0.7c0,0,0.1,0,0.1,0c0.4,0,0.6,0.2,0.6,0.7v6.5C145.2,93.5,144.9,93.7,144.5,93.8
			L144.5,93.8z M147.6,91.6c0.2,0,0.4,0.1,0.6,0.4c0.5,0.5,1.1,0.8,1.8,0.8c1,0,1.6-0.4,1.6-1.2c0-0.5-0.4-0.9-1.1-1.1l-1.5-0.3
			c-1.3-0.3-2-1-2-2.1c0-1.4,1.1-2.3,2.8-2.3c0.7,0,1.4,0.2,2,0.6c0.4,0.2,0.7,0.6,0.7,1.1c0,0.3-0.2,0.5-0.5,0.5c0,0,0,0-0.1,0
			c-0.2,0-0.3-0.1-0.6-0.4c-0.4-0.5-1-0.8-1.6-0.8c-0.9,0-1.5,0.4-1.5,1.1c0,0.6,0.4,0.9,1.1,1.1l1.4,0.3c1.3,0.3,2,1,2,2.1
			c0,1.4-1.1,2.3-2.9,2.3c-0.7,0-1.5-0.2-2.1-0.5c-0.5-0.2-0.8-0.7-0.8-1.2c0-0.3,0.2-0.5,0.4-0.6C147.5,91.5,147.5,91.5,147.6,91.6
			L147.6,91.6z M157.2,93.8c-1.2,0.2-2.4-0.7-2.5-2c0-0.2,0-0.3,0-0.5v-4.8c0-0.4,0.3-0.6,0.6-0.6c0.4,0,0.6,0.3,0.6,0.6V91
			c-0.1,0.8,0.5,1.6,1.3,1.7c0.1,0,0.3,0,0.4,0c1,0.1,2-0.7,2.1-1.7c0,0,0-0.1,0-0.1v-4.3c0-0.3,0.2-0.7,0.6-0.7
			c0.3,0,0.7,0.2,0.7,0.6c0,0.1,0,0.1,0,0.2v6.5c0,0.3-0.3,0.6-0.6,0.6c-0.3,0-0.6-0.3-0.6-0.6v-0.7h-0.1
			C159.2,93.3,158.2,93.9,157.2,93.8L157.2,93.8z M165.2,93.8c-1.3,0.1-2.4-0.8-2.5-2.1c0-0.1,0-0.2,0-0.3c0-1.4,1-2.3,2.7-2.3h2
			v-0.7c0-1-0.6-1.5-1.7-1.5c-0.6,0-1.2,0.3-1.6,0.8c-0.1,0.2-0.3,0.3-0.6,0.3c-0.3,0-0.5-0.2-0.5-0.5c0,0,0,0,0,0
			c0.1-0.5,0.4-1,0.9-1.2c0.5-0.3,1.2-0.4,1.8-0.4c1.8,0,2.9,0.9,2.9,2.6v4.6c0,0.4-0.2,0.7-0.6,0.7c-0.4,0-0.6-0.3-0.6-0.7v-0.4
			h-0.1C166.9,93.4,166.1,93.8,165.2,93.8L165.2,93.8z M165.5,92.8c1,0.1,1.8-0.7,1.9-1.6c0,0,0,0,0,0v-0.9h-2
			c-0.9,0-1.5,0.4-1.5,1.2c0,0.8,0.7,1.3,1.5,1.3C165.5,92.7,165.5,92.7,165.5,92.8L165.5,92.8z M170.9,93.1v-9.2
			c-0.1-0.3,0.1-0.7,0.4-0.8c0.3-0.1,0.7,0.1,0.8,0.4c0,0.1,0,0.2,0,0.3v9.2c0,0.5-0.3,0.7-0.6,0.7
			C171.1,93.8,170.9,93.5,170.9,93.1L170.9,93.1z M137.6,100.1c0.4,0,0.8,0.3,0.9,0.7c0,0.4-0.3,0.8-0.7,0.9c-0.1,0-0.1,0-0.2,0
			c-0.4,0-0.8-0.3-0.9-0.7s0.3-0.8,0.7-0.9C137.5,100.1,137.6,100.1,137.6,100.1z M137.6,110.6c-0.3,0-0.6-0.3-0.6-0.6
			c0,0,0-0.1,0-0.1v-6.5c0-0.3,0.2-0.7,0.6-0.7c0.3,0,0.7,0.2,0.7,0.6c0,0.1,0,0.1,0,0.2v6.5C138.3,110.2,138,110.5,137.6,110.6
			C137.7,110.5,137.7,110.5,137.6,110.6L137.6,110.6z M146.2,110.6c-0.4,0-0.6-0.3-0.6-0.7v-4.2c0-1.2-0.6-1.8-1.7-1.8
			c-1.3,0-2.1,0.9-2.1,2.4v3.7c0,0.4-0.2,0.7-0.6,0.7s-0.6-0.3-0.6-0.7v-6.5c0-0.4,0.2-0.7,0.6-0.7s0.6,0.3,0.6,0.7v0.8h0.1
			c0.3-1,1.3-1.6,2.3-1.5c1.3-0.2,2.5,0.8,2.6,2.1c0,0.2,0,0.3,0,0.5v4.6c0.1,0.3-0.2,0.7-0.5,0.7
			C146.3,110.5,146.3,110.5,146.2,110.6L146.2,110.6z M150.1,110.6c-0.4,0-0.6-0.3-0.6-0.7v-6h-0.6c-0.3,0-0.5-0.2-0.6-0.4
			c0,0,0-0.1,0-0.1c0-0.3,0.2-0.5,0.6-0.5h0.6v-0.7c-0.2-1,0.6-2,1.6-2.2c0.2,0,0.4,0,0.6,0c0.3,0,0.6,0.1,0.9,0.2
			c0.1,0.1,0.2,0.3,0.2,0.4c0,0.2-0.2,0.5-0.4,0.5c0,0,0,0-0.1,0c-0.3,0-0.4-0.1-0.7-0.1c-0.6,0-0.8,0.3-0.8,1v0.8h1.1
			c0.3,0,0.5,0.2,0.5,0.5c0,0.3-0.2,0.5-0.5,0.5c0,0,0,0,0,0h-1.1v6C150.8,110.2,150.5,110.5,150.1,110.6
			C150.2,110.5,150.1,110.5,150.1,110.6L150.1,110.6z M160.3,106.1v1.2c0.1,1.8-1.3,3.4-3.1,3.5c-1.8,0.1-3.4-1.3-3.5-3.1
			c0-0.1,0-0.2,0-0.3V106c-0.1-1.8,1.3-3.4,3.1-3.5c1.8-0.1,3.4,1.3,3.5,3.1C160.3,105.8,160.3,105.9,160.3,106.1L160.3,106.1z
			 M154.9,106.2v0.9c0,1.5,0.8,2.4,2,2.4s2-0.9,2-2.4v-0.9c0-1.4-0.8-2.4-2-2.4S154.9,104.7,154.9,106.2L154.9,106.2z M162.8,110.5
			c-0.4,0-0.6-0.3-0.6-0.7v-6.5c0-0.3,0.2-0.7,0.6-0.7c0,0,0.1,0,0.1,0c0.4,0,0.6,0.3,0.6,0.7v0.3l0,0c0.3-0.6,1-1,1.7-1
			c0.2,0,0.4,0,0.5,0.1c0.2,0.1,0.3,0.3,0.2,0.5c0,0.2-0.1,0.4-0.2,0.5c-0.2,0.1-0.4,0.1-0.6,0.1c-1.1,0-1.7,0.6-1.7,1.8v4.1
			C163.5,110.3,163.2,110.5,162.8,110.5z M177.4,110.5c-0.3,0-0.6-0.3-0.6-0.6c0,0,0-0.1,0-0.1v-4.5c0.1-0.8-0.5-1.5-1.3-1.6
			c-0.1,0-0.2,0-0.3,0c-0.9,0-1.7,0.7-1.7,1.7c0,0,0,0.1,0,0.1v4.3c0,0.3-0.2,0.7-0.5,0.7c0,0-0.1,0-0.1,0c-0.4,0-0.6-0.3-0.6-0.7
			v-4.4c0.1-0.9-0.6-1.6-1.4-1.7c-0.1,0-0.2,0-0.2,0c-0.9,0-1.7,0.7-1.7,1.6c0,0.1,0,0.1,0,0.2v4.3c0,0.4-0.2,0.7-0.6,0.7
			c-0.4,0-0.6-0.3-0.6-0.7v-6.5c0-0.4,0.2-0.7,0.6-0.7c0.3,0,0.6,0.3,0.6,0.6c0,0,0,0.1,0,0.1v0.6h0.1c0.3-0.9,1.2-1.4,2.1-1.3
			c1-0.1,1.8,0.5,2.1,1.4l0,0c0.4-0.9,1.3-1.5,2.3-1.4c1.2-0.2,2.4,0.7,2.5,1.9c0,0.2,0,0.3,0,0.5v4.8
			C178.1,110.1,177.8,110.4,177.4,110.5C177.5,110.5,177.4,110.5,177.4,110.5L177.4,110.5z M182.3,110.6c-1.3,0.1-2.4-0.8-2.5-2.1
			c0-0.1,0-0.2,0-0.3c0-1.4,1-2.3,2.7-2.3h2v-0.7c0-1-0.6-1.5-1.7-1.5c-0.6,0-1.2,0.3-1.6,0.7c-0.1,0.2-0.3,0.3-0.6,0.3
			c-0.3,0-0.5-0.2-0.5-0.5c0,0,0,0,0,0c0.1-0.5,0.4-1,0.9-1.2c0.5-0.3,1.2-0.4,1.8-0.4c1.8,0,2.9,0.9,2.9,2.5v4.6
			c0,0.4-0.2,0.7-0.6,0.7c-0.4,0-0.6-0.2-0.6-0.7v-0.4h-0.1C184.1,110.2,183.2,110.7,182.3,110.6L182.3,110.6z M182.7,109.5
			c1,0,1.8-0.7,1.8-1.7v-0.9h-2c-0.9,0-1.5,0.4-1.5,1.2c0,0.8,0.6,1.4,1.4,1.4C182.5,109.5,182.6,109.5,182.7,109.5L182.7,109.5z
			 M188.4,103.8h-0.6c-0.3,0-0.6-0.2-0.6-0.5c0-0.3,0.2-0.6,0.5-0.6c0,0,0.1,0,0.1,0h0.6v-1.3c0-0.4,0.2-0.7,0.6-0.7
			c0.3,0,0.6,0.2,0.6,0.6c0,0,0,0.1,0,0.1v1.3h1c0.3,0,0.5,0.2,0.6,0.4c0,0,0,0.1,0,0.1c0,0.3-0.2,0.5-0.5,0.5c0,0-0.1,0-0.1,0h-1
			v4.6c0,0.8,0.2,1.1,0.9,1.1h0.5c0.2,0,0.5,0.2,0.5,0.4c0,0,0,0,0,0c0,0.2-0.1,0.4-0.3,0.5c-0.3,0.1-0.6,0.2-0.9,0.2
			c-1.4,0-1.9-0.6-1.9-2.2L188.4,103.8z M193.8,100c0.4,0,0.8,0.4,0.8,0.8c0,0.4-0.4,0.8-0.8,0.8c-0.4,0-0.8-0.4-0.8-0.8
			c0,0,0,0,0,0C193,100.4,193.4,100,193.8,100C193.8,100,193.8,100,193.8,100L193.8,100z M193.8,110.5c-0.3,0-0.6-0.3-0.6-0.6
			c0,0,0-0.1,0-0.1v-6.5c0-0.3,0.2-0.7,0.5-0.7c0,0,0.1,0,0.1,0c0.4,0,0.6,0.2,0.6,0.7v6.5C194.5,110.2,194.3,110.5,193.8,110.5
			C193.9,110.5,193.9,110.5,193.8,110.5z M203.1,106v1.2c0,1.8-1.5,3.3-3.3,3.3s-3.3-1.5-3.3-3.3V106c0-1.8,1.5-3.3,3.3-3.3
			S203.1,104.2,203.1,106L203.1,106z M197.7,106.1v0.9c0,1.5,0.8,2.4,2,2.4s2-0.9,2-2.4v-0.9c0-1.4-0.8-2.4-2-2.4
			S197.8,104.7,197.7,106.1L197.7,106.1z M210.7,110.5c-0.4,0-0.6-0.3-0.6-0.7v-4.2c0-1.2-0.6-1.8-1.7-1.8c-1.3,0-2.1,0.9-2.1,2.4
			v3.7c0,0.4-0.2,0.7-0.6,0.7c-0.3,0-0.6-0.3-0.6-0.6c0,0,0-0.1,0-0.1v-6.5c0-0.4,0.2-0.7,0.6-0.7c0.3,0,0.6,0.2,0.6,0.6
			c0,0,0,0.1,0,0.1v0.8h0.1c0.3-1,1.3-1.6,2.3-1.5c1.3-0.1,2.5,0.8,2.6,2.1c0,0.2,0,0.3,0,0.5v4.6c0.1,0.3-0.2,0.7-0.5,0.7
			C210.7,110.5,210.7,110.5,210.7,110.5L210.7,110.5z M139,127.3c-1.3,0.1-2.4-0.8-2.5-2.1c0-0.1,0-0.2,0-0.3c0-1.4,1-2.3,2.7-2.3h2
			V122c0-1-0.6-1.5-1.7-1.5c-0.6,0-1.2,0.3-1.6,0.8c-0.1,0.2-0.3,0.3-0.6,0.3c-0.3,0-0.5-0.2-0.5-0.4c0,0,0,0,0-0.1
			c0.1-0.5,0.4-1,0.9-1.2c0.5-0.3,1.2-0.4,1.8-0.4c1.8,0,2.9,0.9,2.9,2.5v4.6c0,0.4-0.2,0.7-0.6,0.7c-0.4,0-0.6-0.2-0.6-0.7v-0.4h0
			C140.8,126.9,139.9,127.4,139,127.3z M139.4,126.3c1,0,1.8-0.7,1.8-1.7c0,0,0,0,0,0v-0.9h-2c-0.9,0-1.5,0.4-1.5,1.2
			c0,0.8,0.7,1.4,1.4,1.4C139.3,126.3,139.3,126.3,139.4,126.3L139.4,126.3z M150.3,127.3c-0.3,0-0.6-0.3-0.6-0.6c0,0,0-0.1,0-0.1
			v-4.3c0-1.2-0.6-1.8-1.7-1.8c-1.3,0-2.1,0.9-2.1,2.4v3.7c0,0.3-0.2,0.7-0.5,0.7c0,0-0.1,0-0.1,0c-0.4,0-0.6-0.3-0.6-0.7v-6.5
			c0-0.3,0.2-0.7,0.5-0.7c0,0,0.1,0,0.1,0c0.4,0,0.6,0.3,0.6,0.7v0.8h0.1c0.3-1,1.3-1.6,2.3-1.5c1.3-0.2,2.5,0.8,2.6,2.1
			c0,0.2,0,0.3,0,0.5v4.6c0.1,0.3-0.1,0.7-0.5,0.7C150.4,127.3,150.4,127.3,150.3,127.3L150.3,127.3z M155.2,127.3
			c-1.3,0.1-2.4-0.8-2.5-2.1c0-0.1,0-0.2,0-0.2c0-1.4,1-2.3,2.7-2.3h2v-0.7c0-1-0.6-1.5-1.7-1.5c-0.6,0-1.2,0.3-1.6,0.8
			c-0.1,0.2-0.3,0.3-0.6,0.3c-0.3,0-0.5-0.2-0.5-0.4c0,0,0,0,0-0.1c0.1-0.5,0.4-1,0.9-1.2c0.6-0.3,1.2-0.4,1.8-0.4
			c1.8,0,2.9,0.9,2.9,2.5v4.6c0,0.4-0.2,0.7-0.6,0.7c-0.4,0-0.6-0.2-0.6-0.7v-0.4h-0.1C156.9,126.9,156.1,127.4,155.2,127.3
			L155.2,127.3z M155.5,126.3c1,0.1,1.8-0.7,1.9-1.6c0,0,0,0,0,0v-0.9h-1.9c-0.9,0-1.5,0.4-1.5,1.2
			C154,125.7,154.6,126.3,155.5,126.3C155.4,126.3,155.4,126.3,155.5,126.3z M160.8,126.6v-9.2c0-0.5,0.3-0.7,0.6-0.7
			c0.3,0,0.6,0.3,0.6,0.6c0,0,0,0.1,0,0.1v9.2c0,0.3-0.2,0.7-0.5,0.7c0,0-0.1,0-0.1,0C161.1,127.3,160.8,127.1,160.8,126.6
			L160.8,126.6z M164.6,128.9h0.4c0.5,0,1-0.5,1.2-1.1c0,0,0.1-0.4,0.1-0.5l-2.5-6.8c-0.1-0.1-0.1-0.3-0.1-0.5
			c0-0.3,0.3-0.6,0.6-0.6c0,0,0,0,0,0c0.3,0,0.5,0.2,0.7,0.6l1.9,5.8h0.1l1.8-5.8c0.1-0.4,0.4-0.6,0.7-0.6c0.3,0,0.6,0.2,0.6,0.6
			c0,0,0,0,0,0c0,0.2,0,0.3-0.1,0.5l-2.6,7.2c-0.6,1.6-1.3,2.2-2.5,2.2c-0.3,0-0.6-0.1-0.8-0.2c-0.1-0.1-0.1-0.2-0.1-0.4
			C164,129.1,164.3,128.9,164.6,128.9L164.6,128.9z M171.6,125.1c0.2,0,0.4,0.1,0.6,0.4c0.5,0.5,1.1,0.8,1.8,0.8
			c1,0,1.6-0.4,1.6-1.2c0-0.5-0.4-0.9-1.1-1.1l-1.5-0.3c-1.3-0.3-2-1-2-2.1c0-1.4,1.1-2.3,2.8-2.3c0.7,0,1.4,0.2,2,0.6
			c0.4,0.2,0.7,0.6,0.7,1.1c0,0.3-0.2,0.5-0.5,0.5c0,0,0,0-0.1,0c-0.2,0-0.4-0.1-0.7-0.4c-0.4-0.5-1-0.8-1.6-0.8
			c-0.9,0-1.5,0.4-1.5,1.1c0,0.6,0.4,0.9,1.1,1.1l1.4,0.4c1.3,0.3,2,0.9,2,2.1c0,1.4-1.1,2.3-2.9,2.3c-0.7,0-1.4-0.2-2.1-0.5
			c-0.5-0.2-0.8-0.7-0.9-1.2c0-0.3,0.2-0.5,0.4-0.6C171.6,125.1,171.6,125.1,171.6,125.1L171.6,125.1z M179.5,116.8
			c0.4,0,0.8,0.3,0.9,0.7c0,0.4-0.3,0.8-0.7,0.9c-0.1,0-0.1,0-0.2,0c-0.4,0-0.8-0.3-0.9-0.7c0-0.4,0.3-0.8,0.7-0.9
			C179.4,116.8,179.4,116.8,179.5,116.8z M179.5,127.3c-0.3,0-0.6-0.3-0.6-0.6c0,0,0-0.1,0-0.1v-6.5c0-0.3,0.2-0.7,0.5-0.7
			c0,0,0.1,0,0.1,0c0.3,0,0.6,0.3,0.6,0.6c0,0,0,0.1,0,0.1v6.5c0.1,0.3-0.2,0.7-0.5,0.7C179.6,127.3,179.6,127.3,179.5,127.3
			L179.5,127.3z M182.5,125.1c0.2,0,0.4,0.1,0.6,0.4c0.5,0.5,1.1,0.8,1.8,0.8c1,0,1.6-0.4,1.6-1.2c0-0.5-0.4-0.9-1.1-1.1l-1.5-0.3
			c-1.3-0.3-2-1-2-2.1c0-1.4,1.1-2.3,2.8-2.3c0.7,0,1.4,0.2,2,0.6c0.4,0.2,0.7,0.6,0.7,1.1c0,0.3-0.2,0.5-0.5,0.5c0,0,0,0-0.1,0
			c-0.2,0-0.3-0.1-0.6-0.4c-0.4-0.5-1-0.8-1.6-0.8c-0.9,0-1.5,0.4-1.5,1.1c0,0.6,0.4,0.9,1.1,1.1l1.4,0.4c1.3,0.3,2,0.9,2,2.1
			c0,1.4-1.1,2.3-2.9,2.3c-0.7,0-1.5-0.2-2.1-0.5c-0.5-0.2-0.8-0.7-0.9-1.2c0-0.3,0.2-0.5,0.5-0.5
			C182.5,125.1,182.5,125.1,182.5,125.1L182.5,125.1z"/>
	</g>
</g>
</svg>
